<svg id="Layer_3" data-name="Layer 3" xmlns="http://www.w3.org/2000/svg" viewBox="0 0 375.77 183">
    <defs>
        <style>.cls-1{fill:#ff8136;}</style>
    </defs>
    <path d="M320.08,265.14c7.72,0,12.18-3.62,13.95-9.07l-2.19-.78c-2,4.57-5.56,7-11.34,7-8.92,0-14.16-6.16-14.16-15.79v-.71h28.12c.07-.49.07-1.63.07-2.26,0-7.79-4.89-15.8-15.09-15.8-10,0-16.57,7.65-16.57,18.7S309.53,265.14,320.08,265.14Zm-.71-34.56c5.74,0,11.55,3.75,11.76,12.46H306.55C307.62,235.46,312.43,230.58,319.37,230.58Zm156.94-10a3,3,0,1,0,0-6.09,3,3,0,1,0,0,6.09ZM310.16,322.43c0,5.31,4.11,8.85,10.56,8.85a19.2,19.2,0,0,0,13.38-5.73,5.52,5.52,0,0,0,5.88,4.67c3.33,0,5.52-1.77,6.23-5.45l-1.63-.71c-.56,2.19-1.62,3.4-3.54,3.4-2.48,0-3.61-1.28-3.61-5.81V306.28c0-7.08-2.9-12.32-12.32-12.32-5.52,0-8.71,1.63-10.91,3.61-1.91,1.77-2.48,3.4-2.48,4.39a2,2,0,0,0,2.13,2.06c1.7,0,1.91-1.63,2.9-3.47,1.21-2.13,3.05-3.76,8.08-3.76,5.66,0,9.06,3,9.06,9.14v4C318.73,310,310.16,314.36,310.16,322.43Zm23.73.28a18,18,0,0,1-12.61,5.74c-4.17,0-7.64-2-7.64-6,0-5,4.32-9.7,20.25-10Zm50.35-52.4c0,5.45,5.17,10,15.65,10,11,0,16.72-4.6,16.72-10.69,0-6.73-7.86-8.51-15.58-9.14-5.74-.49-11-.71-11-3.54,0-1.42,1.42-2.76,7.72-2.76H400c8.49,0,13.95-5.81,13.95-13.31a13.07,13.07,0,0,0-3.47-8.93c.49-6.44,6.16-3.26,6.16-6.58a2,2,0,0,0-2.27-2.13c-3.25,0-5.73,3.26-6.16,6.8a13.79,13.79,0,0,0-7.79-2.27c-8.64,0-14.23,5.81-14.23,13.11a12.67,12.67,0,0,0,6.58,11.47c-3.82.35-5.88,2.34-5.88,5,0,1.91,1.21,3.75,4.4,4.81C387.22,263.23,384.24,266.55,384.24,270.31ZM389.48,241a10.63,10.63,0,0,1,21.25.14c0,5.52-4,10.34-10.69,10.34A10.44,10.44,0,0,1,389.48,241Zm5.81,22,7.08.64c8.29.74,10.84,3.12,10.84,6.23,0,4.32-4.39,7.65-13.25,7.65-7.93,0-12.46-3.19-12.46-7.44C387.5,266.91,390.19,263.86,395.29,263ZM409.53,294c-9.92,0-16.58,7.72-16.58,18.91,0,11,5.88,18.41,15.73,18.41,5.38,0,9.93-2.51,12.25-6.8l.07,6.09.21.15,11.19-1.07v-1.91h-8v-51l-1.91-.57c-3.1,4-6.87,6.1-11.26,6v1.56a13.12,13.12,0,0,0,9.63-1.62v17.27A13.59,13.59,0,0,0,409.53,294Zm11.33,26.56c-1.77,5-6.16,7.93-11.62,7.93-8,0-12.74-6.09-12.74-15.72,0-9.42,5.31-15.94,13.45-15.94a12,12,0,0,1,10.91,6.38Zm-74.51-87.61v28l-8.42.71v2.05h20v-2L349.9,261V239.36c2.9-4.89,8-8.57,13.59-8.57s8.71,3.68,8.71,9.35V261l-8.21.71v2h19.33v-2.05l-7.57-.71V239.78c0-6.44-3.12-12-11.55-12a17.41,17.41,0,0,0-14.37,8.08v-7.65l-2-.57a14.31,14.31,0,0,1-11.33,4.61v1.55C339.91,234.4,343.52,234.33,346.35,232.91Zm79.18.22v20c0,6.37,3.05,12,11.62,12a17.36,17.36,0,0,0,14.23-7.86l.07,7.15.21.14,11-1.06V261.6h-7.79V228.17l-2-.57a14.86,14.86,0,0,1-11.4,4.61v1.55c3.33.64,6.94.57,9.77-.85v21c-3,4.67-8.07,8.21-13.6,8.21s-8.64-3.68-8.64-9.28V228.17l-1.91-.57c-3,3.19-6,4.68-10.41,4.61v1.55A14.19,14.19,0,0,0,425.53,233.13Zm-39.87,127.4-2-.57a14.87,14.87,0,0,1-11.41,4.61v1.56c3.33.63,6.94.56,9.78-.85v21c-3,4.67-8.08,8.21-13.6,8.21s-8.64-3.68-8.64-9.27V360.53L357.9,360c-3,3.19-6,4.68-10.41,4.61v1.56a14.26,14.26,0,0,0,8.78-.64v20c0,6.37,3,12,11.61,12a17.38,17.38,0,0,0,14.24-7.86l.07,7.15.21.14,11.05-1.06V394h-7.79ZM449.11,294C438.7,294,432,301.47,432,312.59s6.72,18.69,17.06,18.69,17.21-7.65,17.21-18.69S459.45,294,449.11,294Zm0,34.49c-8.28,0-13.59-6.37-13.59-15.86s5.31-15.8,13.59-15.8,13.67,6.31,13.67,15.8S457.47,328.45,449.11,328.45Zm-2.55,31.66c-10,0-16.57,7.64-16.57,18.69s6.66,18.7,17.21,18.7c7.72,0,12.18-3.61,13.95-9.07l-2.19-.77c-2,4.56-5.56,7-11.33,7-8.93,0-14.17-6.17-14.17-15.8v-.7h28.12c.07-.5.07-1.63.07-2.27C461.65,368.11,456.76,360.11,446.56,360.11ZM433.68,375.4c1.06-7.57,5.87-12.46,12.81-12.46,5.74,0,11.55,3.75,11.76,12.46Zm32.57-113.73v2.05h20.19v-2.05l-8.22-.71V228.24l-2-.64a14.86,14.86,0,0,1-11.4,4.61v1.55a15.91,15.91,0,0,0,9.84-.92V261Zm61,44c0-6.45-2.69-11.69-10.2-11.69-5.74,0-10.24,3-13.24,7.72-1-4.32-3.83-7.72-9.71-7.72-5.16,0-10,3.31-13,7.79v-7.37l-2-.56a14.73,14.73,0,0,1-11.33,4.6v1.49a16,16,0,0,0,9.85-.92V327.1l-8.43.71v2.06h18.48v-2l-6.51-.71v-22c2.69-4.67,7.15-8.14,12-8.14,5.66,0,7.5,3.82,7.5,9.63v20.53l-6.94.71v2h17.49v-2l-7-.71v-21a10,10,0,0,0-.07-1.41c3-5,7.08-7.79,11.9-7.79,5.74,0,7.58,3.89,7.58,9.56v20.6l-6.45.71v2H535v-2l-7.72-.78ZM410.94,376.89c-4.6-1.13-10.41-2.69-10.41-7.72,0-3.33,2.41-6.3,8.5-6.3,5.45,0,8.29,2.41,10.84,6.87l2.26,4,1.77-.35L421.64,360h-1.92l-.07,5.88c-2-3.18-5.52-5.73-11.12-5.73-7.08,0-11.33,4-11.33,9.13,0,7.15,8.15,9.35,13,10.63,6.66,1.69,11.19,3.32,11.19,8.14,0,4.25-3.61,6.8-9.06,6.8-5.67,0-9.21-2.83-12.68-8.5l-2.19-3.61-1.84.35L398,396.86h2l-.21-6.65a14.25,14.25,0,0,0,13,7.29c7.23,0,12-3.83,12-9.77C424.75,380.86,418.73,378.87,410.94,376.89ZM527.37,261V239.78c0-6.44-3.12-12-11.54-12a17.41,17.41,0,0,0-14.31,8.08v-7.65l-2-.57a14.32,14.32,0,0,1-11.33,4.61v1.55c3.4.64,7,.57,9.84-.85v28l-8.43.71v2.05h20.05v-2l-8.08-.71V239.36c2.91-4.89,8-8.57,13.53-8.57s8.71,3.68,8.71,9.35V261l-8.22.71v2H535v-2.05ZM282.12,327.67l-11-.71v-18.2h14.59l10.34,21.11h13v-2.2l-10.55-1.06-8.78-17.85c8.28-.42,13.17-6.37,13.17-14.09,0-7.93-5.52-13.6-14-13.6h-31.8v2.2l10.34.78V327l-10.34.71v2.2h25.07Zm-11-43.77h16.5c7,0,11.48,4.25,11.48,10.77s-3.76,11.19-11.33,11.19H271.14Zm76,43.91v2.06h20.05v-2l-8.08-.71V305.5c2.91-4.88,8-8.49,13.6-8.49s8.71,3.61,8.71,9.27v20.89l-8.21.71v2h19.33v-2.06L385,327.1V305.93c0-6.45-3.11-12-11.54-12A17.53,17.53,0,0,0,359,302v-7.58l-2-.56c-2.91,3.19-6.73,4.6-11.33,4.6v1.49c3.4.64,7,.57,9.84-.85v28Zm-65-66.29-11-.7V243.47h16.79c8.78,0,13.88-6.24,13.88-14.59s-5.38-14-14.24-14H257.05v2.2l10.27.78v43l-10.27.7v2.2h25.07Zm-11-43.83h15.73c6.94,0,11.19,4.46,11.19,11.12s-3.69,11.82-10.63,11.82H271.14Zm31.45,132.5,10.41-.78v-2.19H288.35v2.19l10.48.71v19.12H271.21V350.12l10.49-.71v-2.19H257.05v2.19l10.34.78v43l-10.34.71v2.19H281.7v-2.19l-10.49-.71V372.07h27.62v21.11l-10.48.71v2.19H313v-2.19l-10.41-.71Zm27.19,9.92c-10.41,0-17.14,7.57-17.14,18.69s6.73,18.7,17.07,18.7,17.21-7.65,17.21-18.7S340.12,360.11,329.78,360.11Zm0,34.56c-8.28,0-13.59-6.38-13.59-15.87s5.31-15.86,13.59-15.86,13.67,6.37,13.67,15.86S338.14,394.67,329.78,394.67Z" transform="translate(-208.11 -214.5)"/>
    <polygon class="cls-1" points="0 181.58 3.75 181.58 3.75 90.85 3.75 0.24 0 0.24 0 90.94 0 181.58"/>
    <polygon class="cls-1" points="372.02 181.58 375.77 181.58 375.77 90.85 375.77 0.24 372.02 0.24 372.02 90.94 372.02 181.58"/>
</svg>